<svg xmlns="http://www.w3.org/2000/svg" xmlns:xlink="http://www.w3.org/1999/xlink" viewBox="0 0 293.31 387.79"><defs><style>.cls-1{fill:url(#linear-gradient);}.cls-2{fill:url(#linear-gradient-2);}.cls-3{fill:url(#linear-gradient-3);}.cls-4{fill:url(#linear-gradient-4);}.cls-5{fill:url(#linear-gradient-5);}.cls-6{fill:url(#linear-gradient-6);}.cls-7{fill:url(#linear-gradient-7);}.cls-8{fill:#544114;}.cls-9{font-size:48px;fill:#063;font-family:ProductSans-Black, Product Sans Black;font-weight:800;}.cls-10{letter-spacing:-0.02em;}.cls-11{letter-spacing:-0.01em;}.cls-12{letter-spacing:0em;}.cls-13{letter-spacing:-0.02em;}.cls-14{letter-spacing:-0.03em;}.cls-15{letter-spacing:0em;}</style><linearGradient id="linear-gradient" x1="100.94" y1="82.74" x2="100.94" gradientUnits="userSpaceOnUse"><stop offset="0" stop-color="#2b9547"/><stop offset="0.11" stop-color="#379a44"/><stop offset="0.31" stop-color="#55a63d"/><stop offset="0.56" stop-color="#87ba32"/><stop offset="0.87" stop-color="#cbd623"/><stop offset="1" stop-color="#e9e21c"/></linearGradient><linearGradient id="linear-gradient-2" x1="192.36" y1="82.73" x2="192.36" y2="0" xlink:href="#linear-gradient"/><linearGradient id="linear-gradient-3" x1="84.18" y1="146.81" x2="84.18" y2="29.92" xlink:href="#linear-gradient"/><linearGradient id="linear-gradient-4" x1="209.14" y1="146.84" x2="209.14" y2="29.9" xlink:href="#linear-gradient"/><linearGradient id="linear-gradient-5" x1="73.06" y1="214.31" x2="73.06" y2="71.09" xlink:href="#linear-gradient"/><linearGradient id="linear-gradient-6" x1="220.25" y1="214.33" x2="220.25" y2="71.11" xlink:href="#linear-gradient"/><linearGradient id="linear-gradient-7" x1="146.65" y1="275.42" x2="146.65" y2="116.47" xlink:href="#linear-gradient"/></defs><title>Asset 10</title><g id="Layer_2" data-name="Layer 2"><g id="Layer_1-2" data-name="Layer 1"><path class="cls-1" d="M141.32,50.86V82.74L60.56,10l.7-.51C94.72-14.47,141.32,9.68,141.32,50.86Z"/><path class="cls-2" d="M232.74,10,152,82.73V50.86c0-41.18,46.6-65.34,80.06-41.34Z"/><path class="cls-3" d="M141.32,97.1v49.71L27,43.91c.07-.1.14-.21.22-.31a33,33,0,0,1,48.93-5.15Z"/><path class="cls-4" d="M152,146.84V97.08l65.14-58.65a33,33,0,0,1,48.93,5.16l.24.34Z"/><path class="cls-5" d="M141.32,161.16v53.15L4.8,91.41h0c0-.14.07-.28.11-.41C10.07,71.57,34.08,64.61,49,78.05Z"/><path class="cls-6" d="M288.51,91.43,152,214.33V161.2l92.32-83.13c14.93-13.44,38.95-6.48,44.09,13C288.44,91.15,288.47,91.29,288.51,91.43Z"/><path class="cls-7" d="M293.31,128.76A146.65,146.65,0,0,1,152,275.32c-1.77.07-3.55.1-5.33.1s-3.57,0-5.34-.1A146.66,146.66,0,0,1,0,128.76v-.3c0-10.41,12.45-15.82,20.19-8.86L141.32,228.67V214.31l5.35,4.82,5.32-4.8v14.36l121.13-109c7.74-7,20.17-1.55,20.19,8.86Z"/><path class="cls-8" d="M146.67,219.13l-5.35-4.82v97.35a5.34,5.34,0,0,0,5.33,5.34h0a5.34,5.34,0,0,0,5.33-5.34V214.33Z"/><text class="cls-9" transform="translate(30.47 373.1)"><tspan class="cls-10">E</tspan><tspan class="cls-11" x="27.65" y="0">v</tspan><tspan class="cls-12" x="55.06" y="0">e</tspan><tspan class="cls-13" x="82.22" y="0">r</tspan><tspan x="101.62" y="0">g</tspan><tspan class="cls-14" x="130.8" y="0">r</tspan><tspan class="cls-15" x="149.95" y="0">e</tspan><tspan x="177.36" y="0">en</tspan></text></g></g></svg>